# xmcd CD database file
#
# Track frame offsets:
#	150
#	12258
#	24891
#	37104
#	48788
#	60296
#	71918
#	82421
#	93037
#	104331
#	116866
#	127346
#	139313
#	149377
#	159734
#	173541
#	184617
#	196276
#	208862
#	220693
#
# Disc length: 3097 seconds
#
# Revision: 1
# Processed by: cddbd v1.4PL0 Copyright (c) Steve Scherf et al.
# Submitted via: NeoAudio 9.9.9
#
DISCID=250c1714
DTITLE=Various Artist - Unforgettable Country vol 1
DYEAR=1900
DGENRE=Country
TTITLE0=Please Release me
TTITLE1=I'm moving on
TTITLE2=Your cheatin heart
TTITLE3=Walkin after midnight
TTITLE4=The battle of New Orleans
TTITLE5=Wabash Cannonball
TTITLE6=Blue eyes cryin in the rain
TTITLE7=Walk on by
TTITLE8=A white sport coat
TTITLE9=White lighting
TTITLE10=He'll have to go
TTITLE11=Stand by your man
TTITLE12=It's only make believe
TTITLE13=Wings of a dove
TTITLE14=Saginaw Michigan
TTITLE15=King of the road
TTITLE16=Kaw-Liga
TTITLE17=Rose Garden
TTITLE18=Ring of fire
TTITLE19=Take this job and shove it
EXTD=
EXTT0=
EXTT1=
EXTT2=
EXTT3=
EXTT4=
EXTT5=
EXTT6=
EXTT7=
EXTT8=
EXTT9=
EXTT10=
EXTT11=
EXTT12=
EXTT13=
EXTT14=
EXTT15=
EXTT16=
EXTT17=
EXTT18=
EXTT19=
PLAYORDER=
